<svg width="99" height="100" viewBox="0 0 99 100" fill="none" xmlns="http://www.w3.org/2000/svg">
<path fill-rule="evenodd" clip-rule="evenodd" d="M72.1221 79.5673C72.2678 79.2011 72.52 78.887 72.8461 78.6658C73.1723 78.4445 73.5573 78.3262 73.9514 78.3262C74.3456 78.3262 74.7306 78.4445 75.0567 78.6658C75.3829 78.887 75.6351 79.2011 75.7808 79.5673C76.1226 80.2582 76.3005 81.0186 76.3005 81.7894C76.3005 82.5602 76.1226 83.3207 75.7808 84.0116C75.6351 84.3778 75.3829 84.6918 75.0567 84.9131C74.7306 85.1343 74.3456 85.2526 73.9514 85.2526C73.5573 85.2526 73.1723 85.1343 72.8461 84.9131C72.52 84.6918 72.2678 84.3778 72.1221 84.0116C71.7794 83.3209 71.6011 82.5604 71.6011 81.7894C71.6011 81.0185 71.7794 80.2579 72.1221 79.5673ZM73.9509 80.3184C73.9331 80.3184 73.9342 80.3973 73.8642 80.5239C73.6855 80.9229 73.5931 81.3551 73.5931 81.7922C73.5931 82.2293 73.6855 82.6615 73.8642 83.0605C73.9342 83.1871 73.9331 83.266 73.9509 83.266C73.9687 83.266 73.9676 83.1871 74.0375 83.0605C74.217 82.6617 74.3097 82.2295 74.3097 81.7922C74.3097 81.3549 74.217 80.9227 74.0375 80.5239C73.9687 80.3973 73.9687 80.3184 73.9509 80.3184ZM67.48 65.1512C67.4793 65.7754 67.2307 66.3737 66.789 66.8147C66.3472 67.2556 65.7485 67.5032 65.1243 67.5028C64.5001 67.5024 63.9016 67.2542 63.4604 66.8127C63.0192 66.3712 62.7713 65.7726 62.7713 65.1484C62.7713 64.5243 63.0192 63.9256 63.4604 63.4841C63.9016 63.0427 64.5001 62.7944 65.1243 62.7941C65.7485 62.7937 66.3472 63.0412 66.789 63.4822C67.2307 63.9231 67.4793 64.5215 67.48 65.1457V65.1512ZM66.1801 66.8122C66.181 66.7178 66.1447 66.6268 66.079 66.5589C66.0285 66.5089 65.9644 66.4749 65.8946 66.4612C65.8249 66.4475 65.7526 66.4548 65.687 66.4822C65.6214 66.5095 65.5653 66.5556 65.5259 66.6148C65.4865 66.6739 65.4654 66.7434 65.4654 66.8145C65.4654 66.8856 65.4865 66.955 65.5259 67.0142C65.5653 67.0733 65.6214 67.1195 65.687 67.1468C65.7526 67.1741 65.8249 67.1814 65.8946 67.1677C65.9644 67.1541 66.0285 67.1201 66.079 67.07C66.1459 67.0022 66.1834 66.9108 66.1834 66.8156L66.1801 66.8122ZM77.683 65.1512C78.1234 65.592 78.3707 66.1897 78.3707 66.8128C78.3707 67.4359 78.1234 68.0336 77.683 68.4744C77.4651 68.6931 77.2063 68.8666 76.9212 68.985C76.6362 69.1034 76.3306 69.1644 76.0219 69.1644C75.7132 69.1644 75.4076 69.1034 75.1226 68.985C74.8375 68.8666 74.5787 68.6931 74.3609 68.4744C73.9304 68.0472 73.6828 67.4695 73.6701 66.8632C73.6575 66.2568 73.8808 65.6693 74.2931 65.2245L74.3587 65.1534C74.7869 64.7239 75.365 64.4771 75.9715 64.4649C76.5779 64.4527 77.1655 64.676 77.6107 65.0879L77.683 65.1534V65.1512ZM76.3786 66.8122C76.3786 66.7652 76.3695 66.7187 76.3516 66.6752C76.3336 66.6317 76.3073 66.5922 76.2741 66.5589L76.2486 66.5323C76.1786 66.4775 76.0911 66.4501 76.0024 66.455C75.9138 66.4599 75.8299 66.4968 75.7664 66.5589L75.7397 66.5856C75.6855 66.6554 75.6581 66.7422 75.6624 66.8305C75.6666 66.9187 75.7024 67.0025 75.763 67.0667C75.8308 67.1336 75.9222 67.1711 76.0175 67.1711C76.112 67.1723 76.2031 67.1359 76.2708 67.07C76.3041 67.0366 76.3304 66.9969 76.3484 66.9532C76.3663 66.9095 76.3754 66.8628 76.3752 66.8156L76.3786 66.8122ZM66.2234 79.5673C66.3691 79.2011 66.6213 78.887 66.9475 78.6658C67.2736 78.4445 67.6587 78.3262 68.0528 78.3262C68.4469 78.3262 68.8319 78.4445 69.1581 78.6658C69.4842 78.887 69.7365 79.2011 69.8821 79.5673C70.224 80.2582 70.4018 81.0186 70.4018 81.7894C70.4018 82.5602 70.224 83.3207 69.8821 84.0116C69.7365 84.3778 69.4842 84.6918 69.1581 84.9131C68.8319 85.1343 68.4469 85.2526 68.0528 85.2526C67.6587 85.2526 67.2736 85.1343 66.9475 84.9131C66.6213 84.6918 66.3691 84.3778 66.2234 84.0116C65.8816 83.3207 65.7038 82.5602 65.7038 81.7894C65.7038 81.0186 65.8816 80.2582 66.2234 79.5673ZM68.0522 80.3184C68.0344 80.3184 68.0356 80.3973 67.9667 80.5239C67.7873 80.9227 67.6945 81.3549 67.6945 81.7922C67.6945 82.2295 67.7873 82.6617 67.9667 83.0605C68.0356 83.1871 68.0344 83.266 68.0522 83.266C68.07 83.266 68.0689 83.1871 68.1389 83.0605C68.3183 82.6617 68.4111 82.2295 68.4111 81.7922C68.4111 81.3549 68.3183 80.9227 68.1389 80.5239C68.07 80.3973 68.07 80.3184 68.0522 80.3184ZM15.4754 44.542C15.4171 44.6588 15.3363 44.7628 15.2377 44.8484C15.1391 44.9339 15.0247 44.9991 14.9008 45.0404C14.777 45.0816 14.6463 45.0981 14.5161 45.0889C14.386 45.0796 14.2589 45.0448 14.1422 44.9865C14.0254 44.9281 13.9214 44.8473 13.8358 44.7487C13.7503 44.6501 13.6851 44.5357 13.6438 44.4119C13.6025 44.2881 13.5861 44.1573 13.5953 44.0272C13.6046 43.897 13.6394 43.7699 13.6977 43.6532L18.6475 33.7547C18.9896 33.1121 19.1733 32.3971 19.1831 31.6692C19.1866 30.9565 19.0133 30.2541 18.6786 29.6249C18.6578 29.5854 18.6396 29.5445 18.6242 29.5026C18.0362 28.0223 17.7988 26.4258 17.9306 24.8384C18.0624 23.251 18.5599 21.7156 19.3841 20.3525C20.2083 18.9894 21.3368 17.8356 22.6813 16.9814C24.0258 16.1272 25.5497 15.5958 27.1339 15.4288V10.6401C27.1543 10.3898 27.2682 10.1564 27.4529 9.98628C27.6375 9.81613 27.8794 9.72168 28.1305 9.72168C28.3816 9.72168 28.6235 9.81613 28.8081 9.98628C28.9928 10.1564 29.1066 10.3898 29.1271 10.6401V15.4176C31.0646 15.5911 32.9135 16.3091 34.4602 17.4887C36.2332 18.8257 37.5085 20.7169 38.0834 22.8618C38.6518 25.0305 38.5005 27.3251 37.6523 29.4004L37.609 29.4937C37.2703 30.1411 37.0935 30.8608 37.0935 31.5914C37.0935 32.322 37.2703 33.0418 37.609 33.6891L42.5677 43.6676C42.6677 43.9011 42.6744 44.164 42.5865 44.4023C42.4987 44.6406 42.3229 44.8362 42.0952 44.9488C41.8676 45.0615 41.6055 45.0827 41.3627 45.0081C41.12 44.9334 40.915 44.7687 40.79 44.5476L35.8535 34.6147C35.3673 33.6913 35.1115 32.6641 35.108 31.6206C35.1045 30.577 35.3534 29.5481 35.8335 28.6216C36.5042 26.956 36.6211 25.1189 36.1668 23.3818C35.705 21.6622 34.6815 20.1463 33.2592 19.0753C32.0588 18.1606 30.6318 17.5905 29.1316 17.4265V22.2751C29.1428 22.4129 29.1254 22.5515 29.0805 22.6821C29.0355 22.8128 28.9639 22.9327 28.8703 23.0343C28.7766 23.136 28.663 23.2171 28.5364 23.2726C28.4098 23.328 28.2731 23.3567 28.1349 23.3567C27.9967 23.3567 27.8601 23.328 27.7335 23.2726C27.6069 23.2171 27.4932 23.136 27.3996 23.0343C27.3059 22.9327 27.2344 22.8128 27.1894 22.6821C27.1444 22.5515 27.127 22.4129 27.1383 22.2751V17.4465C25.8825 17.6095 24.6804 18.057 23.6236 18.7547C22.5667 19.4524 21.683 20.3821 21.0396 21.4728C20.3963 22.5636 20.0102 23.7868 19.9109 25.0493C19.8115 26.3117 20.0015 27.5802 20.4664 28.7582C20.9358 29.6635 21.1776 30.6695 21.1708 31.6892C21.1617 32.7359 20.9003 33.765 20.4086 34.6891L15.4766 44.5498L15.4754 44.542ZM29.0727 25.2795C28.8015 25.1622 28.5093 25.1014 28.2138 25.1006C27.9181 25.1015 27.6257 25.162 27.3539 25.2784C27.0812 25.396 26.8349 25.5672 26.6294 25.7817C25.9861 26.425 25.2795 27.2449 24.6695 27.9349C24.0061 28.645 23.5895 29.5502 23.4818 30.5159C23.3704 31.4908 23.5886 32.475 24.1018 33.3114C24.6329 34.3402 25.7128 35.9202 26.3783 36.929C26.5788 37.2389 26.8546 37.493 27.1798 37.6675C27.505 37.8421 27.8692 37.9314 28.2382 37.9272C28.6073 37.923 28.9693 37.8254 29.2905 37.6434C29.6116 37.4615 29.8815 37.2012 30.0749 36.8868L30.0871 36.8657L32.177 33.2892L32.2092 33.2303C32.6889 32.4105 32.8897 31.4573 32.7814 30.5137C32.6745 29.5499 32.2596 28.6463 31.5981 27.9371L29.8371 25.8261C29.8114 25.796 29.7839 25.7674 29.7549 25.7406C29.5581 25.5436 29.3254 25.3864 29.0693 25.2772L29.0727 25.2795ZM28.346 27.1361C28.332 27.1241 28.3163 27.1144 28.2994 27.1072C28.2739 27.0973 28.2467 27.0924 28.2194 27.0927C28.1917 27.0922 28.1641 27.0971 28.1383 27.1072C28.119 27.1151 28.1013 27.1264 28.0861 27.1405L26.1195 29.3004C25.7534 29.6958 25.5236 30.1982 25.4639 30.7337C25.4021 31.2658 25.5194 31.8034 25.7973 32.2614L28.0594 35.8568C28.0772 35.8802 28.0995 35.8999 28.1249 35.9146C28.1669 35.9381 28.2158 35.9459 28.263 35.9368C28.3102 35.9276 28.3526 35.9021 28.3827 35.8646L30.4571 32.2881L30.506 32.2114C30.7608 31.7634 30.8655 31.2455 30.8048 30.7337C30.7435 30.1865 30.5051 29.6742 30.126 29.2749L28.346 27.1361ZM71.6332 26.6983C71.4549 26.8468 71.2302 26.9281 70.9982 26.9281C70.7662 26.9281 70.5415 26.8468 70.3632 26.6983C69.4779 26.0686 68.4291 25.7088 67.3437 25.6624C66.2582 25.6161 65.1826 25.8852 64.2468 26.4372C63.2918 27.0022 62.5202 27.8309 62.0247 28.8238C61.5343 29.7983 61.3437 30.8964 61.4769 31.9792C61.4823 32.0234 61.4849 32.068 61.4847 32.1125C61.486 34.659 62.4828 37.1041 64.2624 38.9256C65.123 39.8441 66.1628 40.5763 67.3177 41.0768C68.4726 41.5773 69.7179 41.8356 70.9765 41.8356C72.2352 41.8356 73.4805 41.5773 74.6354 41.0768C75.7903 40.5763 76.8301 39.8441 77.6907 38.9256L77.7396 38.8789C79.4957 37.0597 80.4771 34.6299 80.4773 32.1014C80.4776 32.0591 80.4802 32.0168 80.4851 31.9748C80.6183 30.8905 80.4333 29.791 79.9528 28.8099C79.4723 27.8289 78.7169 27.0088 77.7786 26.4494C76.8403 25.89 75.7596 25.6155 74.6681 25.6593C73.5766 25.7031 72.5214 26.0633 71.631 26.6961L71.6332 26.6983ZM75.1564 13.0022C76.2469 12.7052 77.3901 12.6566 78.5018 12.86C78.6854 12.8872 78.8578 12.9651 78.9997 13.0848C79.1416 13.2045 79.2473 13.3613 79.3051 13.5377C79.7406 14.8623 79.7586 16.2886 79.3566 17.6237C78.9545 18.9588 78.1519 20.1381 77.0574 21.0019C75.977 21.8701 74.6612 22.3949 73.2798 22.5085C72.7803 22.5464 72.278 22.5259 71.7832 22.4474C71.9458 23.0238 72.0457 23.6161 72.081 24.214C73.3052 23.7263 74.6351 23.5649 75.9405 23.7456C77.2459 23.9263 78.4819 24.4429 79.5277 25.2448C80.5734 26.0467 81.393 27.1065 81.9061 28.3203C82.4193 29.5341 82.6084 30.8603 82.455 32.1692C82.4374 35.1885 81.2586 38.0852 79.1629 40.2589L79.1096 40.3178C76.9744 42.5029 74.0656 43.7608 71.011 43.8198H70.9554C67.8965 43.7646 64.9825 42.5064 62.8447 40.3178C60.7136 38.1382 59.5122 35.2163 59.4937 32.1681C59.3228 30.7152 59.5808 29.2441 60.2359 27.936C60.9047 26.5981 61.9466 25.4825 63.2357 24.7239C64.2638 24.1166 65.4204 23.76 66.612 23.6828C67.8035 23.6055 68.9965 23.81 70.0944 24.2795C70.0307 23.2963 69.736 22.342 69.2344 21.4941C68.484 20.2251 67.3002 19.2701 65.9012 18.8053C65.6507 18.7217 65.4437 18.5421 65.3257 18.3059C65.2076 18.0698 65.1882 17.7964 65.2718 17.5459C65.3553 17.2954 65.5349 17.0884 65.7711 16.9704C66.0073 16.8523 66.2807 16.8329 66.5312 16.9165C67.5535 17.2567 68.4977 17.7972 69.3088 18.5064C69.8072 16.9683 70.7516 15.6132 72.0221 14.6132C72.9467 13.8691 74.0131 13.321 75.1564 13.0022ZM71.1754 19.1797C71.6509 18.9623 72.1089 18.7086 72.5454 18.4209C73.3998 17.8572 74.1574 17.1589 74.7886 16.3532C74.9605 16.1744 75.1927 16.066 75.4401 16.0488C75.6875 16.0316 75.9324 16.107 76.1274 16.2603C76.3223 16.4135 76.4533 16.6338 76.495 16.8782C76.5367 17.1227 76.4861 17.3739 76.353 17.5831C75.5889 18.5556 74.6731 19.3985 73.6409 20.0797C73.3987 20.2397 73.1509 20.3897 72.8976 20.5319L73.1198 20.5208C74.1073 20.4395 75.0477 20.0641 75.8197 19.443C76.5128 18.8941 77.0421 18.1655 77.3501 17.3367C77.658 16.5079 77.7328 15.6105 77.5663 14.7421C76.9279 14.6951 76.2862 14.7571 75.6686 14.9254C74.7868 15.1718 73.9643 15.5948 73.2509 16.1687C72.2696 16.9392 71.5454 17.9896 71.1743 19.1808L71.1754 19.1797ZM79.824 61.928C79.8215 60.6518 79.5064 59.3956 78.9062 58.2693C78.8882 58.2357 78.8609 58.2079 78.8277 58.1892C78.7944 58.1705 78.7566 58.1617 78.7185 58.1637C78.6843 58.1659 78.6513 58.1766 78.6224 58.1948C78.5935 58.2131 78.5696 58.2383 78.5529 58.2682L76.4863 62.8524C76.382 63.0788 76.197 63.258 75.9674 63.355C75.7378 63.452 75.4803 63.4598 75.2453 63.3768C72.4702 62.3861 69.4391 62.3782 66.659 63.3546L66.6434 63.3613C66.5229 63.4114 66.3937 63.4372 66.2632 63.4374C66.1327 63.4375 66.0034 63.412 65.8828 63.3621C65.7621 63.3123 65.6525 63.2392 65.5602 63.1469C65.4678 63.0547 65.3946 62.9452 65.3446 62.8246L63.4491 58.2693C63.4339 58.2419 63.4126 58.2183 63.3869 58.2004C63.3566 58.1787 63.3207 58.1659 63.2835 58.1637C63.2447 58.1619 63.2062 58.1711 63.1724 58.1904C63.1401 58.2088 63.1139 58.2362 63.0969 58.2693C62.4622 59.4545 62.1087 60.7698 62.0636 62.1135V62.1224C62.011 63.4567 62.2704 64.7848 62.8213 66.0012C62.8904 66.153 62.92 66.3198 62.9076 66.4861C62.8953 66.6524 62.8412 66.813 62.7504 66.9529C62.6596 67.0928 62.5351 67.2076 62.3883 67.2867C62.2414 67.3658 62.077 67.4067 61.9103 67.4056L56.1783 67.3411C56.813 68.3998 57.6984 69.2862 58.7566 69.9219C59.8147 70.5576 61.013 70.9232 62.2458 70.9865C62.6259 71.0079 62.9942 71.1261 63.3158 71.3298C63.6388 71.5322 63.9041 71.8147 64.0857 72.1498C64.2631 72.4817 64.3522 72.8536 64.3446 73.2299C64.3371 73.6061 64.233 73.9741 64.0424 74.2986C62.9584 76.149 62.5841 78.3303 62.9891 80.4361C63.3866 82.5622 64.5198 84.4806 66.1901 85.8548C67.5943 86.7845 69.2425 87.277 70.9266 87.2703C72.628 87.2619 74.2894 86.7534 75.7041 85.8082C77.4221 84.53 78.5939 82.6502 78.9851 80.545C79.3851 78.3825 78.9821 76.1484 77.8518 74.2619C77.6613 73.9512 77.5471 73.5998 77.5185 73.2364C77.4922 72.8615 77.5735 72.4868 77.7529 72.1565C77.9303 71.8241 78.1904 71.5431 78.508 71.3405C78.8256 71.1379 79.1901 71.0206 79.5662 70.9999C81.0675 70.9216 82.5138 70.409 83.7294 69.5244C84.5198 68.9482 85.1878 68.2209 85.6949 67.3845L79.8995 67.3056C79.7397 67.3139 79.5802 67.283 79.4351 67.2156C79.1968 67.104 79.012 66.903 78.9209 66.6561C78.8298 66.4092 78.8397 66.1364 78.9485 65.8967C79.5268 64.6542 79.825 63.2997 79.8218 61.9291L79.824 61.928ZM80.6573 57.3271C80.4648 56.9702 80.1769 56.6738 79.8257 56.4709C79.4746 56.2681 79.074 56.1668 78.6687 56.1783C78.2633 56.1898 77.8691 56.3137 77.5301 56.5362C77.1911 56.7586 76.9205 57.0709 76.7485 57.4382L75.0386 61.2225C72.3584 60.4396 69.5105 60.4373 66.8289 61.2158L65.2735 57.4882C65.1079 57.1135 64.8406 56.7928 64.5019 56.5625C64.1631 56.3322 63.7666 56.2016 63.3573 56.1855C62.948 56.1694 62.5424 56.2685 62.1866 56.4715C61.8308 56.6745 61.5391 56.9732 61.3447 57.3337C60.5687 58.786 60.1358 60.3968 60.0792 62.0424V62.0591C60.0379 63.191 60.1759 64.3224 60.4881 65.4112L54.6994 65.3468C54.5546 65.332 54.4084 65.3503 54.2717 65.4001C54.0248 65.4896 53.823 65.6726 53.7099 65.9095C53.5968 66.1465 53.5815 66.4185 53.6672 66.6667C54.3002 68.4368 55.4428 69.9801 56.9512 71.1021C58.4595 72.2242 60.2662 72.8748 62.1436 72.972C62.1833 72.9761 62.2214 72.9898 62.2547 73.012C62.2874 73.0315 62.3146 73.059 62.3336 73.092C62.351 73.1218 62.3603 73.1558 62.3603 73.1903C62.3603 73.2249 62.351 73.2588 62.3336 73.2887C61.0036 75.553 60.5431 78.2239 61.0381 80.8028C61.5241 83.4017 62.9148 85.7445 64.9635 87.4159L65.049 87.4792C66.7875 88.6455 68.8353 89.2647 70.9288 89.2569C73.0256 89.2486 75.0735 88.6234 76.8174 87.4592L76.8785 87.417C79.0077 85.8411 80.4608 83.5171 80.945 80.9128C81.4345 78.2765 80.9442 75.5522 79.5662 73.252C79.5364 73.2079 79.5167 73.1579 79.5084 73.1053V73.0909C79.5255 73.0602 79.5499 73.0342 79.5795 73.0153C79.6077 72.997 79.6404 72.9866 79.674 72.9853C81.5628 72.8867 83.3823 72.2417 84.9116 71.1287C86.421 70.0316 87.565 68.5054 88.1948 66.7489C88.246 66.6001 88.2615 66.4412 88.2398 66.2853C88.2181 66.1294 88.1599 65.9808 88.0699 65.8516C87.9799 65.7224 87.8607 65.6163 87.7219 65.5419C87.5832 65.4675 87.4288 65.4269 87.2715 65.4234L81.295 65.3412C81.6442 64.2328 81.8185 63.0767 81.8117 61.9147C81.8066 60.3164 81.4102 58.7436 80.6573 57.3337V57.3271ZM34.2969 78.5796L34.2358 78.5707L34.1536 78.5629C33.9826 78.5558 33.8126 78.5917 33.6592 78.6673C32.558 79.2305 31.6082 80.0497 30.8893 81.0561C30.1078 82.1448 29.5663 83.3869 29.3004 84.7004C29.2546 84.9255 29.132 85.1277 28.9537 85.2725C28.7754 85.4173 28.5523 85.4958 28.3226 85.4944C28.0929 85.4931 27.8707 85.4121 27.6941 85.2653C27.5174 85.1185 27.3972 84.9149 27.3539 84.6893C27.0793 83.4046 26.5226 82.197 25.7239 81.1539C24.9395 80.1115 23.9286 79.2608 22.7674 78.6662C22.6139 78.5906 22.4439 78.5547 22.2729 78.5618L22.1896 78.5695L22.1307 78.5784C21.9874 78.6057 21.8518 78.664 21.7333 78.7492C21.6149 78.8344 21.5166 78.9445 21.4452 79.0718C21.363 79.2215 21.3206 79.3898 21.3219 79.5606V82.2694C21.3191 82.4624 21.3727 82.652 21.4763 82.8149C21.5792 82.9717 21.7261 83.0946 21.8985 83.1683C21.9626 83.1959 22.0237 83.2302 22.0807 83.2705C23.0837 83.989 24.0247 84.7903 24.894 85.6659C25.804 86.5808 26.6445 87.5624 27.4083 88.6025C27.5014 88.7273 27.6223 88.8287 27.7615 88.8985C27.9007 88.9683 28.0542 89.0047 28.2099 89.0047C28.3656 89.0047 28.5192 88.9683 28.6584 88.8985C28.7975 88.8287 28.9185 88.7273 29.0116 88.6025L29.0382 88.568C29.7967 87.5403 30.6305 86.5703 31.5326 85.6659C32.4024 84.791 33.3434 83.9897 34.3458 83.2705C34.4147 83.2219 34.4894 83.182 34.568 83.1516C34.7243 83.0778 34.8573 82.9625 34.9524 82.8183C35.0562 82.6554 35.1103 82.4658 35.108 82.2727V79.5617C35.109 79.3908 35.0661 79.2225 34.9836 79.0729C34.9123 78.9457 34.8141 78.8357 34.6959 78.7505C34.5777 78.6653 34.4423 78.6069 34.2991 78.5796H34.2969ZM34.258 71.7209C34.4948 71.7553 34.7112 71.8743 34.8671 72.0559C35.0229 72.2375 35.1077 72.4694 35.1058 72.7087V75.4175C35.1084 75.6106 35.0543 75.8003 34.9502 75.963C34.855 76.1072 34.722 76.2225 34.5658 76.2963C34.4869 76.3263 34.4123 76.3662 34.3436 76.4152L34.1214 76.573C33.6519 76.571 33.1886 76.6799 32.7692 76.8907C31.381 77.596 30.1829 78.6249 29.276 79.8906C28.9029 80.4042 28.5758 80.9496 28.2983 81.5206C28.0096 80.9701 27.6751 80.4449 27.2983 79.9506C26.3296 78.6688 25.0818 77.6243 23.6496 76.8963C23.2289 76.6844 22.7639 76.5755 22.2929 76.5785L22.0963 76.4396C22.0393 76.3993 21.9782 76.365 21.9141 76.3374C21.735 76.2606 21.5828 76.1324 21.4766 75.969C21.3704 75.8057 21.315 75.6145 21.3174 75.4197V72.7087C21.3149 72.4511 21.4128 72.2026 21.5903 72.016C21.7679 71.8293 22.0111 71.7191 22.2685 71.7087C22.4395 71.7011 22.6096 71.737 22.7629 71.8132C23.8702 72.3689 24.8315 73.1768 25.5695 74.172C26.3371 75.213 26.8677 76.4095 27.1239 77.6774C27.1677 77.9026 27.2883 78.1058 27.465 78.2522C27.6417 78.3987 27.8637 78.4794 28.0932 78.4807C28.3227 78.482 28.5455 78.4038 28.7239 78.2594C28.9023 78.115 29.0251 77.9132 29.0716 77.6885C29.3322 76.4419 29.8771 75.2724 30.6637 74.2708C31.4699 73.2406 32.4944 72.402 33.6636 71.8154C33.8169 71.7392 33.987 71.7033 34.158 71.7109L34.2625 71.7209H34.258ZM29.1305 64.9801C29.1417 65.1178 29.1243 65.2564 29.0794 65.3871C29.0344 65.5178 28.9628 65.6377 28.8692 65.7393C28.7755 65.8409 28.6618 65.922 28.5353 65.9775C28.4087 66.033 28.272 66.0616 28.1338 66.0616C27.9956 66.0616 27.8589 66.033 27.7324 65.9775C27.6058 65.922 27.4921 65.8409 27.3985 65.7393C27.3048 65.6377 27.2333 65.5178 27.1883 65.3871C27.1433 65.2564 27.1259 65.1178 27.1372 64.9801V54.9405C27.1577 54.6903 27.2716 54.4569 27.4562 54.2867C27.6408 54.1166 27.8827 54.0221 28.1338 54.0221C28.3849 54.0221 28.6268 54.1166 28.8114 54.2867C28.9961 54.4569 29.11 54.6903 29.1305 54.9405V64.9801ZM23.3962 65.3134C23.3414 65.2875 23.2893 65.2563 23.2407 65.2201C23.0859 65.129 22.9281 65.0431 22.7674 64.9623C22.6157 64.885 22.4466 64.848 22.2764 64.8548C22.1063 64.8616 21.9407 64.9121 21.7957 65.0013C21.6507 65.0906 21.531 65.2156 21.4482 65.3644C21.3654 65.5133 21.3223 65.6809 21.323 65.8512V68.56C21.3206 68.7548 21.376 68.9459 21.4822 69.1093C21.5884 69.2726 21.7406 69.4008 21.9196 69.4777C21.984 69.5049 22.0451 69.5392 22.1018 69.5799L22.2252 69.6332C22.2918 69.6599 22.3574 69.6877 22.4241 69.7199C22.8524 69.7355 23.2724 69.8436 23.6551 70.0366C25.042 70.7306 26.2463 71.7411 27.1705 72.9865C27.534 73.4759 27.8537 73.9964 28.126 74.5419C28.4078 74.0167 28.7338 73.5164 29.1005 73.0464C30.0873 71.7845 31.3419 70.7573 32.7736 70.0388C33.1749 69.8367 33.6166 69.7281 34.0658 69.721L34.1769 69.6644C34.2402 69.6299 34.3058 69.5966 34.328 69.581C34.3966 69.5321 34.4713 69.4925 34.5502 69.4632C34.712 69.3836 34.8494 69.262 34.948 69.111L34.9813 69.0633C35.0676 68.9104 35.1124 68.7377 35.1113 68.5622V65.8567C35.1123 65.6858 35.0695 65.5175 34.9869 65.3679C34.9035 65.2197 34.7838 65.0952 34.639 65.0061C34.4941 64.9171 34.329 64.8665 34.1591 64.859C33.9881 64.8509 33.8179 64.8869 33.6647 64.9634C33.461 65.0657 33.2614 65.1768 33.0658 65.2968C33.0033 65.3477 32.9346 65.3906 32.8614 65.4245C32.0228 65.9623 31.2816 66.6386 30.6693 67.4244C29.8827 68.426 29.3378 69.5955 29.0771 70.8421C29.0307 71.0668 28.9078 71.2686 28.7295 71.413C28.5511 71.5574 28.3282 71.6356 28.0987 71.6343C27.8692 71.633 27.6473 71.5523 27.4705 71.4058C27.2938 71.2594 27.1733 71.0562 27.1294 70.831C26.8743 69.5642 26.3453 68.3686 25.5795 67.3278C24.986 66.5278 24.2473 65.8467 23.4018 65.3201L23.3962 65.3134ZM29.1305 90.848V91.5913C29.1417 91.729 29.1243 91.8676 29.0794 91.9982C29.0344 92.1289 28.9628 92.2488 28.8692 92.3505C28.7755 92.4521 28.6618 92.5332 28.5353 92.5887C28.4087 92.6441 28.272 92.6728 28.1338 92.6728C27.9956 92.6728 27.8589 92.6441 27.7324 92.5887C27.6058 92.5332 27.4921 92.4521 27.3985 92.3505C27.3048 92.2488 27.2333 92.1289 27.1883 91.9982C27.1433 91.8676 27.1259 91.729 27.1372 91.5913V90.7913C27.0461 90.7557 26.9561 90.7157 26.8683 90.6713C26.4497 90.4605 26.0869 90.1536 25.8095 89.7758C25.1032 88.8145 24.3262 87.9072 23.4851 87.0614C22.7146 86.2865 21.8823 85.5757 20.9963 84.936C20.5138 84.7042 20.1039 84.345 19.8108 83.8971C19.4958 83.4128 19.3286 82.8472 19.3297 82.2694V79.5617C19.3303 79.0528 19.4611 78.5525 19.7097 78.1085C19.8358 77.8829 19.9904 77.6746 20.1697 77.4885C20.0412 77.3556 19.9255 77.2109 19.8242 77.0563C19.5027 76.5701 19.3308 76.0003 19.3297 75.4175V72.7087C19.3322 71.9355 19.6331 71.1932 20.1697 70.6365C20.0411 70.5033 19.9254 70.3582 19.8242 70.2032C19.5027 69.7174 19.3308 69.148 19.3297 68.5655V65.8567C19.331 65.0875 19.6287 64.3483 20.1609 63.7929C20.6931 63.2375 21.4189 62.9086 22.1874 62.8746C22.4042 62.8648 22.6214 62.879 22.8351 62.9169V59.8803C22.8572 59.6313 22.9716 59.3996 23.156 59.2308C23.3404 59.0621 23.5813 58.9684 23.8312 58.9684C24.0812 58.9684 24.3221 59.0621 24.5064 59.2308C24.6908 59.3996 24.8053 59.6313 24.8273 59.8803V63.8801C25.7269 64.4987 26.5182 65.2616 27.1694 66.1378C27.5327 66.6275 27.8524 67.148 28.1249 67.6933C28.4072 67.1681 28.7335 66.6678 29.1005 66.1978C29.7651 65.3466 30.5539 64.6002 31.4404 63.9835V59.8803C31.4624 59.6313 31.5769 59.3996 31.7612 59.2308C31.9456 59.0621 32.1865 58.9684 32.4364 58.9684C32.6864 58.9684 32.9273 59.0621 33.1116 59.2308C33.296 59.3996 33.4105 59.6313 33.4325 59.8803V62.9502C33.8705 62.8486 34.3257 62.8471 34.7644 62.9458C35.203 63.0445 35.6138 63.2407 35.9661 63.52C36.3184 63.7993 36.6032 64.1545 36.7994 64.559C36.9955 64.9636 37.0979 65.4071 37.099 65.8567V68.5655C37.097 69.1151 36.9432 69.6534 36.6546 70.121L36.6046 70.2054C36.5032 70.3613 36.3867 70.5068 36.2568 70.6399C36.4348 70.8257 36.5886 71.0333 36.7146 71.2576C36.9634 71.7016 37.0946 72.2019 37.0957 72.7109V75.4197C37.0966 75.9976 36.9291 76.5632 36.6135 77.0474C36.5094 77.2068 36.3899 77.3557 36.2568 77.4918C36.7927 78.0484 37.0932 78.7902 37.0957 79.5629V82.2716C37.0966 82.8492 36.929 83.4145 36.6135 83.8982C36.3207 84.3467 35.9107 84.7064 35.428 84.9382C34.5419 85.5782 33.7092 86.289 32.9381 87.0637C32.1061 87.9014 31.3367 88.7989 30.6359 89.7491L30.6148 89.778C30.2433 90.2817 29.7235 90.6566 29.1282 90.8502L29.1305 90.848ZM50.4852 92.6657H63.5113C63.6426 92.6657 63.7726 92.6915 63.894 92.7418C64.0153 92.792 64.1255 92.8657 64.2184 92.9585C64.3112 93.0514 64.3849 93.1616 64.4351 93.2829C64.4854 93.4043 64.5113 93.5343 64.5113 93.6656C64.5084 94.499 64.6718 95.3245 64.9919 96.0939C65.3121 96.8634 65.7825 97.5612 66.3756 98.1465L66.4223 98.1965C67.6438 99.362 69.2697 100.008 70.958 99.9999C72.6463 99.9914 74.2655 99.3287 75.4753 98.151C76.0681 97.5647 76.538 96.866 76.8574 96.0958C77.1768 95.3256 77.3392 94.4994 77.3352 93.6656C77.3352 93.4004 77.4405 93.1461 77.6281 92.9585C77.8156 92.771 78.0699 92.6657 78.3352 92.6657H78.3996L85.4271 92.5079C86.2066 92.5079 86.9785 92.3543 87.6987 92.056C88.4189 91.7576 89.0732 91.3203 89.6244 90.7691C90.1755 90.2178 90.6127 89.5634 90.9109 88.8431C91.2091 88.1229 91.3625 87.351 91.3624 86.5715V86.4926L91.2846 79.1695C91.2836 79.0392 91.3083 78.91 91.3572 78.7892C91.4061 78.6685 91.4783 78.5585 91.5697 78.4657C91.6611 78.3728 91.7699 78.2989 91.8899 78.2481C92.0099 78.1973 92.1387 78.1706 92.269 78.1696H92.2757C93.1181 78.17 93.9524 78.0044 94.7308 77.6822C95.5092 77.36 96.2165 76.8876 96.8122 76.2919C97.4079 75.6962 97.8803 74.9889 98.2025 74.2105C98.5247 73.4321 98.6903 72.5978 98.6899 71.7554C98.6929 70.9298 98.5283 70.1123 98.2062 69.3522C97.884 68.5921 97.4109 67.9053 96.8155 67.3333C95.5728 66.1438 93.916 65.4843 92.1957 65.4945C91.9305 65.4945 91.6762 65.3892 91.4886 65.2016C91.3011 65.0141 91.1957 64.7598 91.1957 64.4946V51.1562H50.5229L50.5596 64.2501V64.3424C50.5596 64.6076 50.4542 64.8619 50.2667 65.0494C50.0792 65.237 49.8248 65.3423 49.5596 65.3423C48.7034 65.3203 47.8514 65.47 47.054 65.7826C46.2565 66.0951 45.5297 66.5643 44.9165 67.1623C44.3033 67.7603 43.8161 68.4751 43.4836 69.2644C43.1511 70.0538 42.98 70.9017 42.9806 71.7583C42.9811 72.6148 43.1531 73.4625 43.4866 74.2515C43.8201 75.0405 44.3081 75.7546 44.9221 76.3519C45.536 76.9492 46.2634 77.4174 47.0612 77.729C47.859 78.0406 48.7112 78.1893 49.5674 78.1662C49.6981 78.1667 49.8274 78.1929 49.9479 78.2435C50.0684 78.294 50.1777 78.3679 50.2696 78.4608C50.3615 78.5537 50.4341 78.6638 50.4833 78.7849C50.5325 78.9059 50.5573 79.0355 50.5563 79.1662L50.4852 92.6657ZM7.77575 51.1562H48.5386L48.5719 63.4046C46.5288 63.6477 44.6458 64.6317 43.2796 66.1701C41.9134 67.7085 41.1588 69.6946 41.1588 71.7521C41.1588 73.8095 41.9134 75.7956 43.2796 77.334C44.6458 78.8724 46.5288 79.8564 48.5719 80.0995L48.5008 92.6657H35.6235C35.4922 92.6657 35.3622 92.6915 35.2409 92.7418C35.1195 92.792 35.0093 92.8657 34.9164 92.9585C34.8236 93.0514 34.7499 93.1616 34.6997 93.2829C34.6494 93.4043 34.6236 93.5343 34.6236 93.6656C34.6266 94.4997 34.4633 95.3259 34.1431 96.0961C33.823 96.8662 33.3525 97.5648 32.7592 98.151C31.547 99.3422 29.9133 100.006 28.2138 99.9987C26.4758 100.001 24.8051 99.3274 23.554 98.121C22.9511 97.5457 22.4708 96.8544 22.1418 96.0888C21.8128 95.3232 21.642 94.4989 21.6396 93.6656C21.6396 93.4004 21.5343 93.1461 21.3468 92.9585C21.1592 92.771 20.9049 92.6657 20.6397 92.6657H13.6322C12.8622 92.6664 12.1 92.5124 11.3907 92.2127C10.6814 91.913 10.0397 91.4739 9.50346 90.9213C8.39139 89.7782 7.7712 88.2451 7.77575 86.6503V79.3173C7.77575 79.186 7.74989 79.056 7.69963 78.9346C7.64938 78.8133 7.57573 78.7031 7.48287 78.6102C7.39002 78.5174 7.27978 78.4437 7.15846 78.3935C7.03714 78.3432 6.90711 78.3173 6.77579 78.3173C5.94239 78.3151 5.11802 78.1445 4.35221 77.8157C3.58639 77.4869 2.89492 77.0068 2.3193 76.4041C1.11167 75.1511 0.438359 73.4778 0.441601 71.7376C0.428582 70.0952 1.06796 68.5147 2.21931 67.3433L2.26931 67.2967C3.47408 66.1196 5.096 65.4677 6.78024 65.4834C7.04544 65.4834 7.29979 65.3781 7.48731 65.1905C7.67484 65.003 7.7802 64.7487 7.7802 64.4835V51.1562H7.77575ZM48.5008 7.49129H35.6235C35.4922 7.49129 35.3622 7.46543 35.2409 7.41518C35.1195 7.36492 35.0093 7.29127 34.9164 7.19841C34.8236 7.10556 34.7499 6.99532 34.6997 6.874C34.6494 6.75268 34.6236 6.62265 34.6236 6.49134C34.6237 4.77221 33.9449 3.1226 32.7347 1.90152C32.1446 1.30119 31.4411 0.824168 30.6649 0.498192C29.8888 0.172215 29.0556 0.00378893 28.2138 0.00270621C26.4766 0.0116399 24.8128 0.704611 23.5829 1.93152C22.973 2.52582 22.4872 3.2353 22.1536 4.0188C21.82 4.80231 21.6453 5.64424 21.6396 6.49578C21.6396 6.76098 21.5343 7.01533 21.3468 7.20286C21.1592 7.39039 20.9049 7.49574 20.6397 7.49574H13.6322C12.8619 7.49233 12.0987 7.64271 11.3872 7.93804C10.6758 8.23338 10.0304 8.66774 9.48902 9.21567C8.38392 10.3396 7.76806 11.8549 7.77575 13.4311V20.8419C7.77575 21.1071 7.6704 21.3614 7.48287 21.549C7.29534 21.7365 7.041 21.8418 6.77579 21.8418C5.94244 21.839 5.11689 22.0024 4.34747 22.3225C3.57805 22.6426 2.88023 23.1131 2.29486 23.7062L2.24375 23.7529C1.0795 24.9619 0.432935 26.5776 0.441601 28.256C0.439623 29.994 1.11288 31.6648 2.3193 32.9158C2.89476 33.5187 3.5862 33.999 4.35206 34.3278C5.11791 34.6566 5.94235 34.8271 6.77579 34.8291C7.041 34.8291 7.29534 34.9344 7.48287 35.122C7.6704 35.3095 7.77575 35.5638 7.77575 35.829V49.1641H48.533L48.4952 35.8179C48.4952 35.5548 48.5998 35.3024 48.7858 35.1164C48.9719 34.9303 49.2243 34.8258 49.4874 34.8258C50.339 34.8203 51.181 34.6457 51.9645 34.3121C52.7481 33.9785 53.4575 33.4926 54.0517 32.8825C55.2793 31.6534 55.9728 29.9898 55.9816 28.2527C55.9822 27.41 55.8167 26.5754 55.4946 25.7967C55.1725 25.018 54.7002 24.3104 54.1045 23.7143C53.5088 23.1182 52.8015 22.6453 52.023 22.3227C51.2445 22.0001 50.4101 21.8341 49.5674 21.8341C49.3022 21.8341 49.0479 21.7287 48.8603 21.5412C48.6728 21.3536 48.5674 21.0993 48.5674 20.8341V20.7497L48.5008 7.49241V7.49129ZM77.3352 6.49134C77.3352 6.62265 77.3611 6.75268 77.4113 6.874C77.4616 6.99532 77.5352 7.10556 77.6281 7.19841C77.7209 7.29127 77.8312 7.36492 77.9525 7.41518C78.0738 7.46543 78.2038 7.49129 78.3352 7.49129H85.3438C86.1137 7.49043 86.876 7.64442 87.5853 7.94409C88.2946 8.24375 88.9364 8.68299 89.4725 9.23567C90.5846 10.3787 91.2047 11.9118 91.2002 13.5066L91.2791 20.7585V20.8374C91.2791 21.1026 91.3844 21.357 91.572 21.5445C91.7595 21.732 92.0138 21.8374 92.279 21.8374C93.1214 21.8372 93.9555 22.003 94.7338 22.3253C95.5121 22.6476 96.2192 23.1201 96.8149 23.7157C97.4105 24.3114 97.883 25.0185 98.2053 25.7968C98.5276 26.5751 98.6934 27.4092 98.6932 28.2516C98.6848 29.9886 97.9918 31.6522 96.7644 32.8814C96.1702 33.4915 95.4608 33.9774 94.6773 34.311C93.8937 34.6446 93.0517 34.8192 92.2001 34.8246C91.9349 34.8246 91.6806 34.93 91.4931 35.1175C91.3055 35.3051 91.2002 35.5594 91.2002 35.8246V49.1641H50.5174L50.4818 36.7535C52.3709 36.5114 54.1233 35.6397 55.4561 34.2791C57.0547 32.6778 57.9577 30.5109 57.9693 28.2482C57.9687 26.1897 57.213 24.203 55.8456 22.6643C54.4781 21.1257 52.5938 20.142 50.5496 19.8997L50.4807 7.49241H63.5113C63.7765 7.49241 64.0308 7.38705 64.2184 7.19952C64.4059 7.012 64.5113 6.75765 64.5113 6.49245C64.5116 4.77342 65.1904 3.12398 66.4001 1.90263C66.9898 1.30028 67.6938 0.821716 68.4709 0.495003C69.248 0.16829 70.0825 0 70.9254 0C71.7684 0 72.6029 0.16829 73.38 0.495003C74.1571 0.821716 74.8611 1.30028 75.4508 1.90263C76.6601 3.12525 77.3374 4.77613 77.3352 6.49578V6.49134Z" fill="white"/>
</svg>
