<svg width="90" height="100" viewBox="0 0 90 100" fill="none" xmlns="http://www.w3.org/2000/svg">
<path d="M88.6731 44.4748L67.0227 33.2793L46.0416 22.4359V16.876C47.173 15.5963 48.4592 14.9206 49.7848 14.9196H49.787C51.2354 14.9196 52.6379 15.7222 53.8429 17.24C55.5763 19.4281 57.8028 20.6342 60.1137 20.6342H60.1169C62.4277 20.6342 64.6564 19.4292 66.394 17.24C66.5926 16.9892 66.7014 16.6786 66.7014 16.3594V4.27585C66.7014 3.67279 66.3204 3.13591 65.7504 2.93738C65.1815 2.73885 64.5486 2.92243 64.1739 3.39421C62.9689 4.91306 61.5664 5.71572 60.118 5.71572H60.1158C58.6685 5.71572 57.2681 4.91306 56.0652 3.39421C54.3275 1.20505 52.0989 0 49.788 0H49.7848C47.4751 0 45.2475 1.20719 43.5141 3.39528C43.3156 3.64611 43.2078 3.95564 43.2078 4.27585V22.5373L22.4156 33.2803L0.76521 44.4759C0.184565 44.7758 -0.115363 45.4344 0.0394047 46.0705C0.194172 46.7056 0.763075 47.1528 1.4163 47.1528H7.3551V50.1019C7.3551 51.782 8.72452 53.1493 10.4078 53.1493H11.0738V55.9489C11.0738 57.5062 12.3407 58.7721 13.897 58.7721H14.436V78.8214H13.897C12.3407 78.8214 11.0738 80.0884 11.0738 81.6446V84.4507H10.0577C8.56762 84.4507 7.3551 85.6632 7.3551 87.1532V90.8655H5.08909C3.59905 90.8655 2.38653 92.078 2.38653 93.5681V97.2974C2.38653 98.7875 3.59905 100 5.08909 100H84.8669C86.3569 100 87.5694 98.7875 87.5694 97.2974V93.5681C87.5694 92.078 86.3569 90.8655 84.8669 90.8655H82.6008V87.1532C82.6008 85.6632 81.3883 84.4507 79.8983 84.4507H78.927C78.927 83.949 78.9153 83.4292 78.9035 82.9179C78.8928 82.459 78.8832 82.0246 78.8832 81.6457C78.8832 80.0894 77.6163 78.8225 76.0601 78.8225H75.521V58.7732H76.0601C77.6173 58.7732 78.8832 57.5062 78.8832 55.95V53.1503H79.5546C81.2346 53.1503 82.6019 51.783 82.6019 50.103V47.1539H88.0241C88.6773 47.1539 89.2473 46.7067 89.401 46.0716C89.5558 45.4365 89.2558 44.7779 88.6752 44.4769L88.6731 44.4748ZM13.9076 55.9479V53.1482H24.3774C24.3774 53.6285 24.3656 54.1355 24.355 54.6105C24.3443 55.0865 24.3336 55.5369 24.3454 55.9372L13.9076 55.9489V55.9479ZM31.1338 58.771H31.6728V78.8204H31.1338C29.5776 78.8204 28.3106 80.0873 28.3106 81.6435V84.4496H27.1685V81.6435C27.1685 80.0873 25.9016 78.8204 24.3454 78.8204H23.8063V58.771H24.3454C25.9016 58.771 27.1685 57.5041 27.1685 55.9479C27.1685 55.5679 27.1781 55.1345 27.1888 54.6745C27.2005 54.1643 27.2123 53.6477 27.2123 53.1471H28.3095V55.9468C28.3095 57.5041 29.5765 58.77 31.1327 58.77L31.1338 58.771ZM48.3717 58.771H48.9107V78.8204H48.3717C46.8144 78.8204 45.5485 80.0873 45.5485 81.6435C45.5485 82.0224 45.5389 82.4568 45.5282 82.9158C45.5165 83.4271 45.5047 83.9469 45.5047 84.4485H44.4512C44.4512 83.9469 44.4395 83.4271 44.4278 82.9158C44.4171 82.4568 44.4075 82.0224 44.4075 81.6435C44.4075 80.0873 43.1405 78.8204 41.5843 78.8204H41.0453V58.771H41.5843C43.1416 58.771 44.4075 57.5041 44.4075 55.9479C44.4075 55.5679 44.4171 55.1345 44.4278 54.6745C44.4395 54.1654 44.4512 53.6477 44.4512 53.1471H45.5485V55.9468C45.5485 57.5041 46.8154 58.771 48.3717 58.771ZM65.6095 58.771H66.1486V78.8204H65.6095C64.0533 78.8204 62.7864 80.0873 62.7864 81.6435V84.4496H61.6891C61.6891 83.948 61.6774 83.4281 61.6656 82.9169C61.655 82.4579 61.6454 82.0235 61.6454 81.6446C61.6454 80.0884 60.3784 78.8214 58.8222 78.8214H58.2832V58.7721H58.8222C60.3784 58.7721 61.6454 57.5051 61.6454 55.9489C61.6454 55.569 61.655 55.1356 61.6656 54.6756C61.6774 54.1654 61.6891 53.6488 61.6891 53.1482H62.7864V55.9479C62.7864 57.5051 64.0533 58.771 65.6095 58.771ZM48.3717 81.6553L58.8094 81.6435C58.8094 82.0555 58.82 82.5049 58.8307 82.9809C58.8414 83.458 58.8531 83.9672 58.8531 84.4496H48.3386C48.3386 83.9672 48.3503 83.458 48.361 82.9809C48.3717 82.5049 48.3834 82.0555 48.3717 81.6553ZM58.8307 54.6094C58.82 55.0854 58.8094 55.5359 58.8211 55.9361L48.3834 55.9479V53.1482H58.8542C58.8542 53.6285 58.8425 54.1355 58.8318 54.6105L58.8307 54.6094ZM41.5715 81.6435C41.5715 82.0555 41.5822 82.5049 41.5928 82.9809C41.6035 83.458 41.6153 83.9672 41.6153 84.4496H31.1412L31.1327 81.6553L41.5715 81.6435ZM41.5928 54.6094C41.5822 55.0854 41.5715 55.5359 41.5832 55.9361L31.1455 55.9479V53.1482H41.6153C41.6153 53.6285 41.6035 54.1344 41.5928 54.6094ZM24.3336 81.6435V84.4496H13.9044L13.8959 81.6553L24.3336 81.6435ZM79.7649 87.2845V90.8655H10.19V87.2845H79.7649ZM76.0462 81.6435C76.0462 82.0555 76.0569 82.5049 76.0675 82.9809C76.0782 83.458 76.0899 83.9672 76.0899 84.4496H65.6159L65.6074 81.6553L76.0462 81.6435ZM65.6202 55.9479V53.1482H76.0505L76.0579 55.9372L65.6202 55.9489V55.9479ZM79.7649 50.1009C79.7649 50.214 79.6656 50.3133 79.5525 50.3133H10.4078C10.2914 50.3133 10.19 50.214 10.19 50.1009V47.1517H79.7649V50.1009Z" fill="white"/>
</svg>
