<svg width="91" height="100" viewBox="0 0 91 100" fill="none" xmlns="http://www.w3.org/2000/svg">
<path d="M-0.00100708 60.3051V5.72736C-0.00100708 4.20837 0.602409 2.75159 1.6765 1.6775C2.75058 0.603416 4.20736 0 5.72635 0H62.7761C60.393 2.47967 58.8964 5.67757 58.5192 9.09601C58.1421 12.5145 58.9055 15.9617 60.6907 18.9013C59.781 19.2866 58.9314 19.8005 58.1678 20.4272L51.7588 25.7171L45.4821 20.7629C44.4086 19.9099 43.1764 19.2786 41.857 18.9056C40.5376 18.5325 39.1572 18.4252 37.796 18.5898C36.4348 18.7545 35.1198 19.1878 33.9274 19.8646C32.735 20.5415 31.6888 21.4484 30.8496 22.5327C30.0104 23.617 29.395 24.8572 29.0388 26.1813C28.6827 27.5054 28.5931 28.887 28.7752 30.246C28.9572 31.605 29.4073 32.9143 30.0994 34.098C30.7915 35.2817 31.7117 36.3161 32.8067 37.1413L45.4821 47.1515C47.1317 48.4493 49.1366 49.2153 51.2313 49.3479C53.3259 49.4805 55.4115 48.9735 57.2115 47.8941V66.0324H5.72635C4.20736 66.0324 2.75058 65.429 1.6765 64.3549C0.602409 63.2808 -0.00100708 61.8241 -0.00100708 60.3051ZM74.1087 20.4781C76.0202 20.4781 77.8886 19.9113 79.4779 18.8494C81.0672 17.7874 82.3059 16.2781 83.0374 14.5122C83.7688 12.7463 83.9602 10.8031 83.5873 8.92841C83.2144 7.05372 82.294 5.33171 80.9424 3.98014C79.5908 2.62857 77.8688 1.70813 75.9941 1.33524C74.1195 0.962338 72.1763 1.15372 70.4104 1.88519C68.6445 2.61666 67.1351 3.85535 66.0732 5.44463C65.0113 7.03391 64.4445 8.9024 64.4445 10.8138C64.4445 13.3769 65.4627 15.8351 67.2751 17.6475C69.0875 19.4599 71.5456 20.4781 74.1087 20.4781ZM80.3753 99.6946C80.9778 99.6946 81.5744 99.576 82.131 99.3454C82.6877 99.1148 83.1934 98.7769 83.6195 98.3509C84.0455 97.9248 84.3834 97.419 84.614 96.8624C84.8446 96.3058 84.9632 95.7092 84.9632 95.1067V57.4668C86.6546 57.1324 88.1774 56.2214 89.272 54.8894C90.3666 53.5573 90.965 51.8868 90.9653 50.1627V31.5361C90.9653 29.5611 90.1807 27.667 88.7842 26.2705C87.3877 24.874 85.4937 24.0895 83.5187 24.0895H64.7395C63.7331 24.097 62.7612 24.4569 61.9928 25.1068L51.8199 33.4994L41.7182 25.5035C41.2374 25.1176 40.6796 24.839 40.0824 24.6864C39.4851 24.5337 38.862 24.5106 38.2551 24.6185C37.6481 24.7264 37.0712 24.9628 36.5631 25.312C36.0551 25.6611 35.6275 26.1149 35.3092 26.6429C34.7711 27.5774 34.5911 28.6756 34.8025 29.733C35.014 30.7904 35.6026 31.7349 36.4588 32.3906L49.1647 42.4007C49.9428 43.0249 50.9128 43.3609 51.9103 43.3516C52.9078 43.3423 53.8714 42.9884 54.6378 42.3499L63.2441 35.2288V95.1067C63.2022 95.7335 63.2896 96.3622 63.5007 96.9539C63.7119 97.5456 64.0423 98.0876 64.4715 98.5464C64.9006 99.0052 65.4195 99.3709 65.9958 99.6209C66.5721 99.871 67.1936 100 67.8219 100C68.4501 100 69.0716 99.871 69.648 99.6209C70.2243 99.3709 70.7431 99.0052 71.1723 98.5464C71.6015 98.0876 71.9319 97.5456 72.143 96.9539C72.3541 96.3622 72.4415 95.7335 72.3997 95.1067V68.2807C72.3991 68.0358 72.4521 67.7937 72.555 67.5715C72.6578 67.3493 72.8081 67.1523 72.9952 66.9943C73.1823 66.8363 73.4016 66.7211 73.6379 66.6569C73.8743 66.5927 74.1217 66.5809 74.3631 66.6225C74.764 66.7037 75.1236 66.9236 75.3784 67.2436C75.6333 67.5636 75.7673 67.9632 75.7568 68.3722V95.1067C75.7567 95.7117 75.8764 96.3108 76.1089 96.8695C76.3414 97.4281 76.682 97.9353 77.1113 98.3617C77.5406 98.7881 78.05 99.1254 78.6101 99.3542C79.1703 99.583 79.7702 99.6987 80.3753 99.6946Z" fill="white"/>
</svg>
