<svg width="101" height="100" viewBox="0 0 101 100" fill="none" xmlns="http://www.w3.org/2000/svg">
<path d="M-0.00100708 100H18.6835C18.6835 97.9616 18.6835 63.6916 18.6835 60.4563H-0.00100708V100Z" fill="white"/>
<path d="M99.5013 66.4095C98.0314 63.1603 94.0658 61.9004 90.9902 63.7065C86.9146 66.1342 70.1564 76.1209 70.0126 76.2019C69.0501 76.7982 67.9168 77.1433 66.7039 77.1433H42.7159C42.1155 77.1433 41.6286 76.6565 41.6286 76.056C41.6286 75.4556 42.1155 74.9688 42.7159 74.9688H66.7039C68.9797 74.9688 70.8314 73.1171 70.8314 70.8413C70.8314 68.5653 68.9797 66.7138 66.7039 66.7138H53.1456C52.9416 66.7138 52.7417 66.6565 52.5687 66.5481C42.9506 60.5295 30.5714 60.4308 20.8582 66.2416V93.8035L45.8637 98.4833C50.5505 99.3609 55.3962 98.5144 59.5082 96.101L97.0521 74.067C99.6761 72.5367 100.781 69.2316 99.5013 66.4095Z" fill="white"/>
<path d="M51.3079 41.5525L57.6205 51.3982L64.5698 46.9421L56.2112 33.9048L51.3079 41.5525Z" fill="white"/>
<path d="M56.9055 9.47005L60.667 3.60319C54.4398 -1.2012 45.5929 -1.201 39.366 3.6034L43.1275 9.47026C47.5532 7.81072 52.4797 7.81072 56.9055 9.47005Z" fill="white"/>
<path d="M43.8215 29.8767L48.7249 22.229L37.7689 5.14111C34.5232 9.07395 34.1243 14.7516 36.9291 19.1244L43.8215 29.8767Z" fill="white"/>
<path d="M35.4627 46.9428L42.4118 51.3983L63.1049 19.1239C65.9082 14.7515 65.5091 9.07409 62.2646 5.14062C61.7201 5.98967 35.4817 46.9132 35.4627 46.9428Z" fill="white"/>
</svg>
