<svg width="101" height="100" viewBox="0 0 101 100" fill="none" xmlns="http://www.w3.org/2000/svg">
<path d="M88.4653 29.1667H80.132C80.132 21.4312 77.0591 14.0125 71.5893 8.54272C66.1195 3.07291 58.7008 0 50.9653 0C43.2299 0 35.8112 3.07291 30.3414 8.54272C24.8716 14.0125 21.7987 21.4312 21.7987 29.1667H13.4653C10.1501 29.1667 6.9707 30.4836 4.6265 32.8278C2.28229 35.172 0.965332 38.3515 0.965332 41.6667V87.5C0.965332 90.8152 2.28229 93.9946 4.6265 96.3388C6.9707 98.683 10.1501 100 13.4653 100H88.4653C91.7805 100 94.96 98.683 97.3042 96.3388C99.6484 93.9946 100.965 90.8152 100.965 87.5V41.6667C100.965 38.3515 99.6484 35.172 97.3042 32.8278C94.96 30.4836 91.7805 29.1667 88.4653 29.1667ZM50.9653 8.33333C56.4886 8.33995 61.7838 10.537 65.6894 14.4426C69.595 18.3482 71.792 23.6434 71.7987 29.1667H30.132C30.1386 23.6434 32.3357 18.3482 36.2412 14.4426C40.1468 10.537 45.442 8.33995 50.9653 8.33333ZM55.132 65.5083V79.1667C55.132 80.2717 54.693 81.3315 53.9116 82.1129C53.1302 82.8943 52.0704 83.3333 50.9653 83.3333C49.8603 83.3333 48.8005 82.8943 48.0191 82.1129C47.2377 81.3315 46.7987 80.2717 46.7987 79.1667V65.5083C45.21 64.5911 43.9683 63.1753 43.2663 61.4805C42.5643 59.7857 42.4412 57.9066 42.916 56.1346C43.3907 54.3627 44.437 52.7969 45.8923 51.6802C47.3477 50.5634 49.1309 49.9581 50.9653 49.9581C52.7998 49.9581 54.583 50.5634 56.0383 51.6802C57.4937 52.7969 58.5399 54.3627 59.0147 56.1346C59.4895 57.9066 59.3663 59.7857 58.6643 61.4805C57.9623 63.1753 56.7207 64.5911 55.132 65.5083Z" fill="white"/>
</svg>
