<?xml version="1.0" encoding="UTF-8"?>
<svg id="Layer_1" data-name="Layer 1" xmlns="http://www.w3.org/2000/svg" viewBox="0 0 194 54">
  <defs>
    <style>
      .cls-1 {
        fill: #1ca069;
        stroke-width: 0px;
      }
    </style>
  </defs>
  <path class="cls-1" d="M43.82,29.48c2.54-2.73,3.93-6.22,3.93-9.84,0-8.26-7.16-14.97-15.97-14.97-7.9,0-14.45,5.41-15.72,12.49h-.28s-.02.12-.02.12c-8.28.55-14.85,7.01-14.85,14.91,0,3.62,1.4,7.11,3.93,9.84-.14,1.66-.56,3.57-1.18,5.36l-.66,1.95,2.01-.42c3.83-.78,6.14-1.85,7.18-2.41,1.52.43,3.09.65,4.66.65h.03c7.82,0,14.32-5.3,15.68-12.27-1.47.23-2.14.15-2.42.07-1.37,5.63-6.79,9.85-13.26,9.85h-.03c-1.35,0-2.7-.19-4.01-.57l-.93-.26-.84.46c-.74.4-2.22,1.09-4.58,1.72.35-1.34.59-2.69.7-3.92l.09-1.05-.71-.77c-2.13-2.28-3.31-5.21-3.31-8.23,0-6.54,5.41-11.92,12.3-12.54,0,3.35,1.36,6.89,3.79,9.73,1.8,2.1,4.78,3.87,8.19,4.85.82.24,1.62.41,2.34.52-.16-.37-.41-.88-.72-1.49-.08-.18-.18-.38-.28-.58-1.5-2.95-4.09-7.5-6.48-9.32-.1-.08-.2-.15-.3-.22,0,0,0,0,.04.01.54.05,5.87.8,10.71,8.62-.02-1.3-.23-2.49-.61-3.64-.02-.09-.05-.19-.09-.29-.03-.09-.05-.18-.08-.27-.04-.1-.08-.2-.12-.29-2.02-5.41-7.24-9.42-13.53-9.99,1.19-5.84,6.72-10.27,13.36-10.27,7.51,0,13.62,5.66,13.62,12.62,0,3.02-1.17,5.95-3.3,8.23l-.72.77.1,1.05c.11,1.23.35,2.58.7,3.92-2.37-.63-3.84-1.32-4.58-1.72l-.85-.46-.93.26c-.9.26-1.81.42-2.73.51.03.13.07.3.09.48h.01c.01.1.02.21.03.33.02.44-.05.98-.36,1.56,1.22-.08,2.43-.28,3.61-.61.52.28,1.36.69,2.55,1.12,1.19.44,2.72.9,4.63,1.29l2.01.42-.66-1.95c-.61-1.79-1.03-3.7-1.18-5.36Z"/>
  <path class="cls-1" d="M71.11,20.23c-1.74,0-3.6-.02-5.84-.02h-2.02v5.08h1.29c1.48,0,3.01,0,5.27-.02v2.14c-2.26-.02-3.77-.02-5.22-.02h-1.34v8.47h-3.04v-17.82h10.9v2.19ZM74.79,36.19c-2.17,0-3.62-1.04-3.62-3.11,0-2.28,1.81-2.99,4.78-3.86,2.17-.64,3.25-.92,3.25-2.05,0-.92-.75-1.36-2.14-1.36-1.77,0-2.92.85-2.97,2.38h-2.61c.26-2.54,2.42-4.31,5.79-4.31,2.64,0,4.64,1.06,4.64,3.98v4.26c0,1.6.42,2.09,1.2,2.09.21,0,.49-.05.68-.21v1.6c-.35.24-.99.42-1.79.42-1.29,0-2.52-.75-2.68-2.61-.71,1.48-2.17,2.78-4.52,2.78ZM73.85,32.89c0,1.04.8,1.44,1.65,1.44,2.09,0,3.72-1.81,3.72-4.28v-.73c-.33.73-1.27,1.04-2.64,1.48-1.88.64-2.73,1.04-2.73,2.09ZM85.55,35.86v-11.56h2.8v3.25c.38-1.46,1.81-3.29,4.61-3.32v2.38c-3.15,0-4.57,1.27-4.61,3.67v5.58h-2.8ZM94.93,35.86v-11.56h2.73v2.31c.73-1.51,2.17-2.71,4.38-2.71,1.86,0,3.18.87,3.58,3.01.68-1.65,2.14-3.01,4.52-3.01,2.24,0,3.69,1.29,3.69,4.54v7.41h-2.73v-6.9c0-2-.75-2.92-2.26-2.92-1.76,0-2.9,1.39-3.11,2.97v6.85h-2.71v-6.9c0-2-.78-2.92-2.26-2.92-1.74,0-2.85,1.29-3.11,2.8v7.01h-2.73ZM122.4,36.28c-3.55,0-6.24-2.19-6.24-6.17s2.66-6.24,6.21-6.24,6.12,2.45,6.14,6.17h-9.72c.02,2.49,1.41,4.1,3.67,4.1,2,0,3.01-1.29,3.27-2.52h2.68c-.4,2.33-2.33,4.66-6.03,4.66ZM119.06,28.23h6.61c-.4-1.39-1.53-2.31-3.29-2.31-1.62,0-2.82.82-3.32,2.31ZM130.92,35.86v-11.56h2.8v3.25c.38-1.46,1.81-3.29,4.61-3.32v2.38c-3.15,0-4.57,1.27-4.61,3.67v5.58h-2.8ZM138.24,35.86v-2.92h2.71v2.92h-2.71ZM149.13,36.26c-3.41,0-6.1-2.24-6.1-6.21s2.66-6.14,6.21-6.14,5.55,2.02,5.95,4.54h-2.59c-.28-1.13-1.18-2.49-3.34-2.49-2.35,0-3.55,1.74-3.55,4.07s1.2,4.19,3.55,4.19,3.15-1.51,3.39-3.01h2.59c-.31,2.73-2.38,5.06-6.12,5.06ZM157.51,35.86v-18.36h2.78v9.13c.75-1.51,2.21-2.73,4.49-2.73s3.76,1.29,3.76,4.54v7.41h-2.78v-6.9c0-2-.78-2.92-2.31-2.92-1.81,0-2.97,1.39-3.18,2.97v6.85h-2.78ZM174.47,36.19c-2.16,0-3.62-1.04-3.62-3.11,0-2.28,1.81-2.99,4.78-3.86,2.16-.64,3.25-.92,3.25-2.05,0-.92-.75-1.36-2.14-1.36-1.76,0-2.92.85-2.97,2.38h-2.61c.26-2.54,2.42-4.31,5.79-4.31,2.63,0,4.64,1.06,4.64,3.98v4.26c0,1.6.42,2.09,1.2,2.09.21,0,.49-.05.68-.21v1.6c-.35.24-.99.42-1.79.42-1.29,0-2.52-.75-2.68-2.61-.71,1.48-2.16,2.78-4.52,2.78ZM173.53,32.89c0,1.04.8,1.44,1.65,1.44,2.09,0,3.72-1.81,3.72-4.28v-.73c-.33.73-1.27,1.04-2.64,1.48-1.88.64-2.73,1.04-2.73,2.09ZM189.59,36.09c-2.21,0-3.77-1.13-3.77-4.4v-5.44h-2.45v-1.95h2.45v-3.04l2.71-1.93h.07v4.97h3.72v1.95h-3.72v5.44c0,1.77.82,2.31,1.88,2.31.96,0,1.72-.4,2.26-1.11l.35,1.79c-.57.68-1.74,1.41-3.51,1.41Z"/>
</svg>