<?xml version="1.0" encoding="UTF-8"?>
<svg id="Layer_1" data-name="Layer 1" xmlns="http://www.w3.org/2000/svg" viewBox="0 0 46.84 44.67">
  <defs>
    <style>
      .cls-1 {
        fill: #1ca069;
        stroke-width: 0px;
      }
    </style>
  </defs>
  <path class="cls-1" d="M42.91,24.81c2.54-2.73,3.93-6.22,3.93-9.84,0-8.26-7.16-14.97-15.97-14.97-7.9,0-14.45,5.41-15.72,12.49h-.28s-.02.12-.02.12C6.57,13.16,0,19.62,0,27.52c0,3.62,1.4,7.11,3.93,9.84-.14,1.66-.56,3.57-1.18,5.36l-.66,1.95,2.01-.42c3.83-.78,6.14-1.85,7.18-2.41,1.52.43,3.09.65,4.66.65h.03c7.82,0,14.32-5.3,15.68-12.27-1.47.23-2.14.15-2.42.07-1.37,5.63-6.79,9.85-13.26,9.85h-.03c-1.35,0-2.7-.19-4.01-.57l-.93-.26-.84.46c-.74.4-2.22,1.09-4.58,1.72.35-1.34.59-2.69.7-3.92l.09-1.05-.71-.77c-2.13-2.28-3.31-5.21-3.31-8.23,0-6.54,5.41-11.92,12.3-12.54,0,3.35,1.36,6.89,3.79,9.73,1.8,2.1,4.78,3.87,8.19,4.85.82.24,1.62.41,2.34.52-.16-.37-.41-.88-.72-1.49-.08-.18-.18-.38-.28-.58-1.5-2.95-4.09-7.5-6.48-9.32-.1-.08-.2-.15-.3-.22,0,0,0,0,.04.01.54.05,5.87.8,10.71,8.62-.02-1.3-.23-2.49-.61-3.64-.02-.09-.05-.19-.09-.29-.03-.09-.05-.18-.08-.27-.04-.1-.08-.2-.12-.29-2.02-5.41-7.24-9.42-13.53-9.99,1.19-5.84,6.72-10.27,13.36-10.27,7.51,0,13.62,5.66,13.62,12.62,0,3.02-1.17,5.95-3.3,8.23l-.72.77.1,1.05c.11,1.23.35,2.58.7,3.92-2.37-.63-3.84-1.32-4.58-1.72l-.85-.46-.93.26c-.9.26-1.81.42-2.73.51.03.13.07.3.09.48h.01c.01.1.02.21.03.33.02.44-.05.98-.36,1.56,1.22-.08,2.43-.28,3.61-.61.52.28,1.36.69,2.55,1.12,1.19.44,2.72.9,4.63,1.29l2.01.42-.66-1.95c-.61-1.79-1.03-3.7-1.18-5.36Z"/>
</svg>